<svg xmlns="http://www.w3.org/2000/svg" width="132.762" height="50.507" viewBox="0 0 132.762 50.507"><defs><clipPath id="a"><path data-name="Rectangle 2" fill="none" d="M0 0h132.762v50.507H0z"/></clipPath></defs><g data-name="Group 1" clip-path="url(#a)"><path data-name="Path 1" d="M22.637 0 0 17.182v18.309c.053 0 2.935.242 6.391-4.667.1-.146.195-.292.3-.434.025-.038.051-.073.076-.112a2.917 2.917 0 0 1 .334-.425 17.664 17.664 0 0 1 22.756-4.329l-.3.039a12.644 12.644 0 0 0-8.359 4.924 12.425 12.425 0 0 0-2.4 9.339c.932 6.388 6.6 10.68 14.109 10.68 7.416 0 10.961-1.817 11.341-2.024l1.024-.558V17.182Zm18.68 31.7v13.747a26.9 26.9 0 0 1-8.41 1.139c-4.543 0-9.457-2.264-10.194-7.321a8.556 8.556 0 0 1 1.651-6.432 8.71 8.71 0 0 1 5.756-3.391 8.881 8.881 0 0 1 1.267-.091 8.733 8.733 0 0 1 4.077 1.01l1.026.539s.646-5.931-5.885-9.424A21.628 21.628 0 0 0 17.9 19.425a21.484 21.484 0 0 0-13.94 8.022v-8.33L22.637 4.938l18.68 14.179Z" fill="#53b7be"/><path data-name="Path 2" d="m83.997 7.479-6.3 16.747h-1.555l-4.349-11.914-4.3 11.914h-1.582L59.638 7.479l.131-.235h2.953l4.112 11.94 4.192-11.94h1.555l4.273 12.071 4.218-12.071h2.794Z" fill="#fff"/><path data-name="Path 3" d="M96.002 16.257v7.969h-2.477v-1.489a6.21 6.21 0 0 1-4.376 1.8c-3.085 0-5.167-1.672-5.167-4.206 0-2.639 2.267-4.416 5.642-4.416a9.671 9.671 0 0 1 3.69.81v-.86c0-1.646-1.424-2.77-3.427-2.77a6.284 6.284 0 0 0-3.717 1.307h-.21l-1.058-1.593V12.6a8.723 8.723 0 0 1 5.246-1.751c3.48 0 5.852 1.751 5.852 5.408m-2.662 3.344-.026-.157v-.653a8.013 8.013 0 0 0-3.4-.888c-1.9 0-3.137.966-3.137 2.377 0 1.307 1.16 2.168 2.9 2.168 1.846 0 3.613-1.149 3.665-2.848" fill="#fff"/><path data-name="Path 4" d="m110.698 11.372-5.932 12.854h-1.793L97.02 11.372l.131-.21h2.795l3.928 9.51 4.112-9.51h2.583Z" fill="#fff"/><path data-name="Path 5" d="M113.906 18.4a4.112 4.112 0 0 0 4.323 3.866 5.562 5.562 0 0 0 4.112-1.724h.238l1.449 1.306v.21a7.648 7.648 0 0 1-5.878 2.482c-3.823 0-7.092-2.587-7.092-6.819a6.727 6.727 0 1 1 13.445-.235 4.383 4.383 0 0 1-.079.915Zm.027-1.96h7.724a3.921 3.921 0 0 0-1.055-2.273 3.973 3.973 0 0 0-6.669 2.273" fill="#fff"/><path data-name="Path 6" d="M75.139 29.705v16.982h-1v-8.125H62.96v8.126h-1.054V29.705h1.054v7.942h11.178v-7.942Z" fill="#fff"/><path data-name="Path 7" d="M78.579 40.156a6.987 6.987 0 1 1 6.985 6.845 6.771 6.771 0 0 1-6.985-6.845m12.943 0a5.958 5.958 0 1 0-5.958 5.931 5.8 5.8 0 0 0 5.958-5.931" fill="#fff"/><path data-name="Path 8" d="M106.266 33.624v13.063h-.976v-2.378A5.261 5.261 0 0 1 100.466 47a4.913 4.913 0 0 1-5.061-5.251v-8.125h1v8.126a4.072 4.072 0 0 0 4.191 4.337 4.417 4.417 0 0 0 4.667-4.546v-7.917Z" fill="#fff"/><path data-name="Path 9" d="M108.84 44.571v-.1l.632-.471h.106a4.4 4.4 0 0 0 3.9 2.09c2.082 0 3.505-1.019 3.505-2.613 0-2.064-2.188-2.717-4.191-3.526-1.556-.628-3.085-1.464-3.085-3.319 0-2.012 1.74-3.318 3.981-3.318a4.847 4.847 0 0 1 4.086 2.116v.1l-.633.471h-.106a4.034 4.034 0 0 0-3.372-1.778c-1.713 0-2.952.941-2.952 2.325s1.161 2.038 2.584 2.587c2.267.915 4.719 1.672 4.719 4.337 0 2.117-1.82 3.527-4.482 3.527a5.349 5.349 0 0 1-4.692-2.43" fill="#fff"/><path data-name="Path 10" d="M120.978 40.496a5.6 5.6 0 0 0 5.694 5.591 6.364 6.364 0 0 0 5.008-2.43h.106l.606.5v.131a7.212 7.212 0 0 1-5.72 2.716 6.584 6.584 0 0 1-6.723-6.845c0-3.867 2.637-6.845 6.485-6.845a5.77 5.77 0 0 1 5.009 2.56 6.941 6.941 0 0 1 1.318 4.18c0 .183-.026.314-.026.444Zm0-.914h10.729a6.412 6.412 0 0 0-.923-3 4.806 4.806 0 0 0-4.32-2.359 5.371 5.371 0 0 0-5.483 5.356" fill="#fff"/></g></svg>